<svg id="Layer_1" data-name="Layer 1" xmlns="http://www.w3.org/2000/svg" viewBox="0 0 280 300"><defs><style>.cls-1{fill:#1ebdc5;fill-rule:evenodd;}</style></defs><title>Bizum Logo</title><path class="cls-1" d="M139.06,142.78a2.59,2.59,0,0,0-2.61,2.55v19.28a2.61,2.61,0,1,0,5.22,0V145.33A2.59,2.59,0,0,0,139.06,142.78Zm0-9.61a3,3,0,0,0-2.94,2.94,3,3,0,0,0,2.94,3,3,3,0,0,0,0-5.94Zm25.44,12.16a2.2,2.2,0,0,0-2.44-2.22H149.12a2.25,2.25,0,1,0,0,4.5h8.5l-11,15.33a2.7,2.7,0,0,0-.5,1.56,2.43,2.43,0,0,0,2.39,2.5h13.72a2.28,2.28,0,0,0,0-4.56H153l10.77-15A3.4,3.4,0,0,0,164.5,145.33Zm-38.1,12.11c0,3.17-1.39,5.12-4.56,5.12s-4.5-1.95-4.5-5.12v-9.83h4.72c3.84,0,4.34,2.11,4.34,4.45Zm5.22-5.5c0-5.38-2.83-8.88-9.44-8.88H117.4v-7.28a2.59,2.59,0,1,0-5.17,0v21.66c0,5.39,2.89,9.78,9.72,9.78s9.72-4.44,9.72-9.78v-5.5Zm53.27-9.16a2.61,2.61,0,0,0-2.61,2.61v12.05c0,3.17-1.39,5.12-4.56,5.12s-4.49-1.95-4.49-5.12V145.39a2.59,2.59,0,1,0-5.17,0v12.05c0,5.39,2.89,9.78,9.72,9.78s9.72-4.44,9.72-9.78V145.39A2.67,2.67,0,0,0,184.89,142.78Zm39.61,9.83c0-5.39-2.5-9.78-9.28-9.78a9.05,9.05,0,0,0-6.72,2.39,9.3,9.3,0,0,0-6.72-2.39c-6.78,0-9.28,4.45-9.28,9.78v12.06a2.59,2.59,0,1,0,5.17,0V152.61c0-3.17,1-5.11,4.11-5.11s4.11,1.94,4.11,5.11v12.06a2.58,2.58,0,1,0,5.16,0V152.61c0-3.17,1-5.11,4.12-5.11s4.11,1.94,4.11,5.11v12.06a2.58,2.58,0,1,0,5.16,0ZM64.74,142.83a4.07,4.07,0,0,0,5.72-.89l4.78-6.61a4.09,4.09,0,0,0-6.61-4.83l-4.84,6.61A4.15,4.15,0,0,0,64.74,142.83Zm21.88-9.33a4.08,4.08,0,0,0-5.72.89L61.68,160.83a4.1,4.1,0,1,0,6.61,4.84l19.22-26.45A4,4,0,0,0,86.62,133.5ZM62.9,131.39a4.1,4.1,0,1,0-5.72.89A4.08,4.08,0,0,0,62.9,131.39Zm29.17,36.33a4.09,4.09,0,1,0,.89,5.73A4.09,4.09,0,0,0,92.07,167.72Zm-7.5-10.5a4.09,4.09,0,0,0-5.72.89L74,164.72a4.1,4.1,0,1,0,6.62,4.84l4.83-6.62A4.09,4.09,0,0,0,84.57,157.22Z"/></svg>