<?xml version="1.0" encoding="UTF-8" standalone="no"?>
<!-- Created with Inkscape (http://www.inkscape.org/) -->

<svg
   xmlns:dc="http://purl.org/dc/elements/1.1/"
   xmlns:cc="http://creativecommons.org/ns#"
   xmlns:rdf="http://www.w3.org/1999/02/22-rdf-syntax-ns#"
   xmlns:svg="http://www.w3.org/2000/svg"
   xmlns="http://www.w3.org/2000/svg"
   xmlns:sodipodi="http://sodipodi.sourceforge.net/DTD/sodipodi-0.dtd"
   xmlns:inkscape="http://www.inkscape.org/namespaces/inkscape"
   width="134.6404mm"
   height="21.738182mm"
   viewBox="0 0 477.07227 77.025054"
   id="svg4201"
   version="1.1"
   inkscape:version="0.91 r13725"
   sodipodi:docname="MRW logo.svg">
  <title
     id="title4789">MRW logo</title>
  <defs
     id="defs4203" />
  <sodipodi:namedview
     id="base"
     pagecolor="#ffffff"
     bordercolor="#666666"
     borderopacity="1.0"
     inkscape:pageopacity="0.0"
     inkscape:pageshadow="2"
     inkscape:zoom="0.98994949"
     inkscape:cx="185.48764"
     inkscape:cy="35.167224"
     inkscape:document-units="px"
     inkscape:current-layer="layer1"
     showgrid="false"
     fit-margin-top="0"
     fit-margin-left="0"
     fit-margin-right="0"
     fit-margin-bottom="0"
     inkscape:window-width="1366"
     inkscape:window-height="705"
     inkscape:window-x="-8"
     inkscape:window-y="-8"
     inkscape:window-maximized="1" />
  <metadata
     id="metadata4206">
    <rdf:RDF>
      <cc:Work
         rdf:about="">
        <dc:format>image/svg+xml</dc:format>
        <dc:type
           rdf:resource="http://purl.org/dc/dcmitype/StillImage" />
        <dc:title>MRW logo</dc:title>
        <cc:license
           rdf:resource="http://creativecommons.org/licenses/by-sa/3.0/" />
        <dc:date>16/11/2016</dc:date>
        <dc:creator>
          <cc:Agent>
            <dc:title>MRW</dc:title>
          </cc:Agent>
        </dc:creator>
        <dc:publisher>
          <cc:Agent>
            <dc:title>CMetalCore</dc:title>
          </cc:Agent>
        </dc:publisher>
      </cc:Work>
      <cc:License
         rdf:about="http://creativecommons.org/licenses/by-sa/3.0/">
        <cc:permits
           rdf:resource="http://creativecommons.org/ns#Reproduction" />
        <cc:permits
           rdf:resource="http://creativecommons.org/ns#Distribution" />
        <cc:requires
           rdf:resource="http://creativecommons.org/ns#Notice" />
        <cc:requires
           rdf:resource="http://creativecommons.org/ns#Attribution" />
        <cc:permits
           rdf:resource="http://creativecommons.org/ns#DerivativeWorks" />
        <cc:requires
           rdf:resource="http://creativecommons.org/ns#ShareAlike" />
      </cc:License>
    </rdf:RDF>
  </metadata>
  <g
     inkscape:label="Capa 1"
     inkscape:groupmode="layer"
     id="layer1"
     transform="translate(-47.16358,-127.2593)">
    <g
       id="g4785"
       transform="matrix(0.25462826,0,0,0.25462826,230.44301,14.503159)">
      <path
         d="m 414.28927,674.38904 c 11.6261,-39.01562 25.49516,-85.5625 30.82013,-103.4375 l 9.68176,-32.5 84.61329,-0.32124 c 46.53737,-0.17668 84.61337,-0.12962 84.61337,0.10458 0,0.23419 -6.46875,21.98808 -14.37512,48.34198 -7.90625,26.35389 -14.16013,48.13105 -13.8975,48.39369 0.26262,0.26263 16.48262,-21.3467 36.0445,-48.02074 l 35.56687,-48.49827 87.70562,-0.32094 c 48.23813,-0.17652 87.70563,-0.14703 87.70563,0.0655 0,0.21256 -5.29787,22.85604 -11.77288,50.31884 -6.47512,27.4628 -11.67825,50.01366 -11.5625,50.11301 0.11501,0.0994 17.58638,-22.54031 38.82375,-50.3104 l 38.61326,-50.49105 92.94925,0 c 51.122,0 92.9491,0.30486 92.9491,0.67746 0,0.37261 -35.5134,47.0601 -78.9186,103.75 l -78.91876,103.07254 -118.58125,0 c -65.21974,0 -118.58137,-0.3989 -118.58137,-0.8865 0,-0.4877 4.52175,-26.7195 10.04825,-58.2929 5.5265,-31.57348 9.8805,-57.90924 9.67563,-58.52395 -0.20488,-0.6147 -14.99225,17.87508 -32.86075,41.0884 -17.8685,23.21335 -34.73025,44.67065 -37.47075,47.68295 -10.83013,11.9045 -30.671,23.0852 -47.76413,26.9158 -7.83975,1.757 -21.037,2.0162 -102.62097,2.0162 l -93.62422,0 21.13839,-70.9375 z M 237.76782,591.0612 c 12.30565,-2.20271 17.42825,-4.46482 24.15792,-10.66802 6.19405,-5.70948 10.62968,-14.68697 11.65127,-23.58159 1.18377,-10.30685 -6.13485,-17.45212 -20.70592,-20.21546 -3.80992,-0.72254 -27.58192,-1.26959 -55.16993,-1.26959 l -48.47545,0 -9.03796,27.1875 c -4.97088,14.95313 -9.29659,27.89063 -9.61268,28.75 -0.85249,2.31766 94.11568,2.13795 107.19275,-0.20284 z m -312.5,153.757 c 0,-0.2795 17.152625,-58.0764 38.11695,-128.43746 24.291325,-81.52726 39.5918375,-130.84952 42.1832,-135.98046 5.7327,-11.35084 17.165975,-22.40029 29.637413,-28.64244 18.934199,-9.47686 10.579449,-9.0609 173.812437,-8.65375 l 145.625,0.36322 10,2.79731 c 32.00606,8.95308 52.08591,28.47266 58.82835,57.18692 3.021,12.86566 1.89701,35.07423 -2.53052,50 -3.58372,12.08113 -10.52774,26.95506 -16.92537,36.25369 -20.11947,29.24265 -56.9357,51.04904 -97.65021,57.83858 l -13.27775,2.21419 28.41474,47.4718 28.41474,47.4717 -97.01199,0.3231 c -53.35659,0.1777 -97.63924,0.084 -98.40586,-0.2085 -0.76664,-0.2924 -8.54035,-13.7435 -17.27492,-29.8912 -8.73456,-16.1478 -16.57125,-30.3035 -17.41487,-31.4573 -1.30703,-1.7874 -2.02297,-0.4637 -4.84143,8.9518 -7.55701,25.2451 -27.049948,43.815 -52.944923,50.4378 -8.993262,2.3001 -14.00985,2.4693 -73.204937,2.4693 -34.952525,0 -63.55005,-0.2287 -63.55005,-0.5083 z m -645.05996,-0.4292 c -0.033,-0.5156 20.0764,-68.57076 44.6875,-151.23369 l 44.74746,-150.29622 117.8125,-0.0163 117.8125,-0.0163 0,2.89214 c 0,5.71999 8.76384,180.03837 9.06664,180.34116 0.17045,0.17046 21.96582,-33.2359 48.43414,-74.23636 26.46832,-41.00046 50.23567,-77.36343 52.81632,-80.8066 9.13263,-12.18496 23.74968,-21.45546 40.64095,-25.77552 8.95558,-2.29045 14.74394,-2.41482 112.39071,-2.41482 l 102.948865,0 -0.721937,2.8125 c -0.397063,1.54688 -20.529788,69.46875 -44.739388,150.9375 l -44.01746,148.12501 -84.03441,0.3213 c -51.48885,0.1969 -84.03443,-0.131 -84.03443,-0.8467 0,-0.6425 8.71875,-34.5277 19.375,-75.3007 10.65625,-40.77291 19.375,-74.42238 19.375,-74.7766 0,-0.35422 -22.78266,33.5271 -50.62814,75.29183 l -50.62813,75.93587 -71.24687,0 c -45.72708,0 -71.24686,-0.439 -71.24686,-1.2258 0,-2.0918 -12.50807,-149.30694 -12.82545,-150.9505 -0.16475,-0.85321 -7.25979,22.20929 -15.76676,51.25 -8.50696,29.04071 -17.17203,56.4576 -19.2557,60.9263 -4.81868,10.3344 -19.4709,25.227 -30.50965,31.0103 -16.50466,8.6468 -19.88815,8.9897 -88.71739,8.9897 -33.92128,0 -61.70203,-0.4218 -61.73501,-0.9375 z"
         style="fill:#003782;fill-opacity:1"
         id="path4774"
         inkscape:connector-curvature="0" />
      <path
         d="m 915.26782,512.08849 c 0,-2.06137 34.78725,-42.18118 40.96475,-47.2442 9.80337,-8.0349 27.47087,-16.51346 39.295,-18.85763 7.99203,-1.58441 22.34383,-1.91012 84.16673,-1.91012 43.9923,0 74.3611,0.46393 74.1151,1.13222 -0.2291,0.62271 -12.2291,16.06717 -26.6666,34.321 l -26.25,33.18879 -92.8125,0.054 c -51.04686,0.0297 -92.81248,-0.27813 -92.81248,-0.68406 z m -231.04163,-0.33378 c 0.22913,-0.5895 11.94788,-16.05598 26.04163,-34.36995 l 25.625,-33.29813 64.14675,-0.005 c 60.52175,-0.005 64.10787,0.11857 63.45987,2.18246 -0.37775,1.20312 -3.82174,15.6875 -7.65337,32.1875 -3.83162,16.5 -7.25462,30.98437 -7.60662,32.1875 -0.60125,2.05456 -5.617,2.1875 -82.535,2.1875 -45.04225,0 -81.7075,-0.48233 -81.47826,-1.07183 z m -221.45837,-0.87274 c 0,-1.07919 4.5,-16.30466 10,-33.83437 5.5,-17.52971 10,-32.11945 10,-32.42163 0,-0.30219 37.96875,-0.54943 84.375,-0.54943 46.40625,0 84.36287,0.42188 84.34812,0.9375 -0.015,0.51563 -4.67575,15.84375 -10.35787,34.0625 l -10.331,33.125 -84.01712,0.3213 c -75.64384,0.28927 -84.01713,0.12574 -84.01713,-1.64087 z"
         style="fill:#db0023;fill-opacity:1"
         id="path4766"
         inkscape:connector-curvature="0" />
    </g>
  </g>
</svg>
